<svg id="Livello_1" data-name="Livello 1" xmlns="http://www.w3.org/2000/svg" xmlns:xlink="http://www.w3.org/1999/xlink" viewBox="0 0 232.18 42.4"><defs><style>.cls-1{fill:#e94057;}.cls-2{fill:#fff;}.cls-3{fill:url(#Sfumatura_senza_nome_42);}.cls-4{fill:url(#Sfumatura_senza_nome_88);}.cls-5{fill:url(#Sfumatura_senza_nome_58);}.cls-6{fill:url(#Sfumatura_senza_nome_59);}.cls-7{fill:url(#Sfumatura_senza_nome_90);}</style><linearGradient id="Sfumatura_senza_nome_42" x1="11.82" y1="83.1" x2="44.77" y2="83.1" gradientUnits="userSpaceOnUse"><stop offset="0" stop-color="#f27121"/><stop offset="1" stop-color="#e94057"/></linearGradient><radialGradient id="Sfumatura_senza_nome_88" cx="21.22" cy="66.73" r="5.66" gradientUnits="userSpaceOnUse"><stop offset="0" stop-color="#f27121"/><stop offset="0.18" stop-color="#f16a29"/><stop offset="0.47" stop-color="#ed553f"/><stop offset="0.7" stop-color="#e94057"/></radialGradient><radialGradient id="Sfumatura_senza_nome_58" cx="33.19" cy="60.61" r="13.89" gradientUnits="userSpaceOnUse"><stop offset="0" stop-color="#f27121"/><stop offset="0.43" stop-color="#ef5e36"/><stop offset="1" stop-color="#e94057"/></radialGradient><linearGradient id="Sfumatura_senza_nome_59" x1="32.1" y1="71.89" x2="42.53" y2="82.31" gradientUnits="userSpaceOnUse"><stop offset="0" stop-color="#e94057" stop-opacity="0.7"/><stop offset="0.15" stop-color="#eb4a4c" stop-opacity="0.76"/><stop offset="0.51" stop-color="#ef5f35" stop-opacity="0.89"/><stop offset="0.8" stop-color="#f16c26" stop-opacity="0.97"/><stop offset="1" stop-color="#f27121"/></linearGradient><radialGradient id="Sfumatura_senza_nome_90" cx="14.46" cy="66.88" r="5.66" xlink:href="#Sfumatura_senza_nome_88"/></defs><path class="cls-1" d="M28.49,76.58h0A2.32,2.32,0,0,0,30.74,79h9.18c-1.49,5.51-5.7,8.55-11.4,8.55-6.94,0-11.74-5.26-11.74-12.45v0a.85.85,0,0,0-.83-.88H12.67a.85.85,0,0,0-.82.87v0c0,9.92,6.9,17.21,16.67,17.21,9.19,0,15.9-6.48,16.62-15.54h0a2.47,2.47,0,0,0-2.4-2.53h-12A2.31,2.31,0,0,0,28.49,76.58Z" transform="translate(-11.82 -49.86)"/><path class="cls-1" d="M14.46,62.24h0a2.43,2.43,0,0,1,2.61,2.2v4.88a2.43,2.43,0,0,1-2.61,2.2h0a2.44,2.44,0,0,1-2.61-2.2V64.44A2.44,2.44,0,0,1,14.46,62.24Z" transform="translate(-11.82 -49.86)"/><path class="cls-1" d="M21.24,62.24h0a2.44,2.44,0,0,1,2.61,2.2v4.88a2.44,2.44,0,0,1-2.61,2.2h0a2.43,2.43,0,0,1-2.61-2.2V64.44A2.43,2.43,0,0,1,21.24,62.24Z" transform="translate(-11.82 -49.86)"/><path class="cls-1" d="M43.58,50.15h0a2.49,2.49,0,0,0-3,1.22L33.8,66.55a.68.68,0,0,1-1.2,0L25.87,51.37a2.49,2.49,0,0,0-3.05-1.22h0a2.08,2.08,0,0,0-1.44,2.74l6.88,16.86a3,3,0,0,0,2.83,1.77h4.22a3,3,0,0,0,2.82-1.77L45,52.89A2.08,2.08,0,0,0,43.58,50.15Z" transform="translate(-11.82 -49.86)"/><path class="cls-2" d="M81.24,83.77H79.47a35.13,35.13,0,0,1-.2-4.19c-1.67,3-4.37,4.7-9.21,4.7-7.6,0-12.44-4.84-12.44-12.64,0-7.2,5-12.72,12.75-12.72,7,0,10,3.45,11,7.06H79.13C78,63.15,75.45,60.9,70.34,60.9c-6.68,0-10.47,4.67-10.47,10.6,0,6.24,3.79,10.8,10.3,10.8,5.59,0,9-2.79,9-8.58v-.93H70.23v-2h11Z" transform="translate(-11.82 -49.86)"/><path class="cls-2" d="M86.29,71.36c0-1.53,0-3.1,0-4.63h1.9c0,.44.11,2.18.11,4a7.5,7.5,0,0,1,7.09-4.53v2c-4,0-7.09,2.76-7.09,7.87v7.6h-2Z" transform="translate(-11.82 -49.86)"/><path class="cls-2" d="M98.32,75.66c.21,4,2.8,6.78,6.78,6.78a6.07,6.07,0,0,0,5.83-3.34h2c-.88,2.28-3.2,5.15-8.07,5.15-5.63,0-8.56-4.37-8.56-8.93,0-5.35,3.55-9.07,8.45-9.07,6.38,0,8.46,4.84,8.46,8.83v.58ZM111,74c-.17-2.42-1.43-5.93-6.3-5.93-3.89,0-6,2.53-6.34,5.93Z" transform="translate(-11.82 -49.86)"/><path class="cls-2" d="M114.34,66.73h3.58V61h2v5.76h4.74v1.74H119.9V79c0,2.25.61,3.2,2.59,3.2a7.84,7.84,0,0,0,1.8-.17v1.64a5.92,5.92,0,0,1-2.21.27c-3.17,0-4.16-1.43-4.16-4.81V68.47h-3.58Z" transform="translate(-11.82 -49.86)"/><path class="cls-2" d="M141.54,79.85c0,1.36.1,3.51.17,3.92H139.8a22.31,22.31,0,0,1-.2-2.8c-.89,1.91-2.8,3.28-6.65,3.28-4.91,0-6.61-3-6.61-5.42,0-4.3,4-5.52,8.76-5.52h4.5V72.22c0-2.15-.92-4.23-5.18-4.23-3.79,0-4.71,1.74-5.12,3.65h-2c.24-2.36,1.77-5.39,7.12-5.39,5.52,0,7.09,2.76,7.09,5.56ZM139.6,75h-4.43c-4.57,0-6.82,1-6.82,3.75,0,2,1.47,3.74,4.77,3.74,5.39,0,6.48-3.37,6.48-6.51Z" transform="translate(-11.82 -49.86)"/><path class="cls-2" d="M165,83.77,154,59.43h2.28l6.21,13.74c2.28,5,3.13,7.12,3.61,8.38h.07c.37-1,1.9-4.46,3.17-7.29L176,59.43h2.29L167.14,83.77Z" transform="translate(-11.82 -49.86)"/><path class="cls-2" d="M180.84,61.62V58h2v3.62Zm0,5.11h2v17h-2Z" transform="translate(-11.82 -49.86)"/><path class="cls-2" d="M188.14,83.77V58h2V83.77Z" transform="translate(-11.82 -49.86)"/><path class="cls-2" d="M195.43,83.77V58h2V83.77Z" transform="translate(-11.82 -49.86)"/><path class="cls-2" d="M216.39,79.85c0,1.36.1,3.51.17,3.92h-1.91a22.31,22.31,0,0,1-.2-2.8c-.89,1.91-2.8,3.28-6.65,3.28-4.91,0-6.61-3-6.61-5.42,0-4.3,4-5.52,8.76-5.52h4.5V72.22c0-2.15-.92-4.23-5.18-4.23-3.79,0-4.71,1.74-5.11,3.65h-2c.24-2.36,1.77-5.39,7.12-5.39,5.52,0,7.09,2.76,7.09,5.56ZM214.45,75H210c-4.57,0-6.82,1-6.82,3.75,0,2,1.47,3.74,4.77,3.74,5.39,0,6.48-3.37,6.48-6.51Z" transform="translate(-11.82 -49.86)"/><path class="cls-2" d="M221.78,71c0-1.43,0-3,0-4.29h1.91c.07.65.1,2.25.1,3.68a6.49,6.49,0,0,1,6.48-4.16c3.88,0,6.54,2.39,6.54,7.23V83.77h-2V73.89c0-3.28-1.22-5.8-4.84-5.8-4.12,0-6.17,3.24-6.17,7.67v8h-2Z" transform="translate(-11.82 -49.86)"/><path class="cls-2" d="M242,61.62V58h2v3.62Zm0,5.11h2v17h-2Z" transform="translate(-11.82 -49.86)"/><path class="cls-3" d="M44.77,79A16.08,16.08,0,0,1,28.49,92.15c-9.77,0-16.67-7.28-16.67-17.2v0a.85.85,0,0,1,.82-.86h3.28a.85.85,0,0,1,.83.88v0c0,7.19,4.79,12.45,11.74,12.45,5.66,0,9.85-3,11.36-8.44Z" transform="translate(-11.82 -49.86)"/><path class="cls-4" d="M21.22,62.09h0a2.43,2.43,0,0,1,2.61,2.2v4.87a2.43,2.43,0,0,1-2.61,2.2h0a2.43,2.43,0,0,1-2.61-2.2V64.29A2.43,2.43,0,0,1,21.22,62.09Z" transform="translate(-11.82 -49.86)"/><path class="cls-5" d="M43.57,50h0a2.52,2.52,0,0,0-3.06,1.23L33.78,66.39a.67.67,0,0,1-1.19,0L25.86,51.22A2.52,2.52,0,0,0,22.8,50h0a2.09,2.09,0,0,0-1.43,2.75L28.25,69.6a3,3,0,0,0,2.83,1.76h4.21a3,3,0,0,0,2.83-1.76L45,52.74A2.09,2.09,0,0,0,43.57,50Z" transform="translate(-11.82 -49.86)"/><path class="cls-6" d="M45.12,76.69a13.51,13.51,0,0,1-.62,3.64c0-.1-.56-.41-.63-.47a6.47,6.47,0,0,0-4-.9s0,0,0,0-.25,0-.25,0l-8.91,0a2.38,2.38,0,0,1,0-4.76h12a2.31,2.31,0,0,1,1.7.74A2.71,2.71,0,0,1,45.12,76.69Z" transform="translate(-11.82 -49.86)"/><path class="cls-7" d="M14.46,62.24h0a2.43,2.43,0,0,1,2.61,2.2v4.88a2.43,2.43,0,0,1-2.61,2.2h0a2.44,2.44,0,0,1-2.61-2.2V64.44A2.44,2.44,0,0,1,14.46,62.24Z" transform="translate(-11.82 -49.86)"/></svg>