<svg id="Livello_1" data-name="Livello 1" xmlns="http://www.w3.org/2000/svg" xmlns:xlink="http://www.w3.org/1999/xlink" viewBox="0 0 644 117.61"><defs><style>.cls-1{fill:#e94057;}.cls-2{fill:#fff;}.cls-3{fill:url(#Sfumatura_senza_nome_42);}.cls-4{fill:url(#Sfumatura_senza_nome_88);}.cls-5{fill:url(#Sfumatura_senza_nome_58);}.cls-6{fill:url(#Sfumatura_senza_nome_59);}.cls-7{fill:url(#Sfumatura_senza_nome_90);}</style><linearGradient id="Sfumatura_senza_nome_42" x1="-403" y1="100.05" x2="-311.59" y2="100.05" gradientUnits="userSpaceOnUse"><stop offset="0" stop-color="#f27121"/><stop offset="1" stop-color="#e94057"/></linearGradient><radialGradient id="Sfumatura_senza_nome_88" cx="-376.92" cy="54.63" fy="44.91447822217145" r="15.71" gradientUnits="userSpaceOnUse"><stop offset="0" stop-color="#f27121"/><stop offset="0.18" stop-color="#f16a29"/><stop offset="0.47" stop-color="#ed553f"/><stop offset="0.7" stop-color="#e94057"/></radialGradient><radialGradient id="Sfumatura_senza_nome_58" cx="-343.73" cy="37.68" r="38.52" gradientUnits="userSpaceOnUse"><stop offset="0" stop-color="#f27121"/><stop offset="0.43" stop-color="#ef5e36"/><stop offset="1" stop-color="#e94057"/></radialGradient><linearGradient id="Sfumatura_senza_nome_59" x1="-346.74" y1="68.94" x2="-317.83" y2="97.86" gradientUnits="userSpaceOnUse"><stop offset="0" stop-color="#e94057" stop-opacity="0.7"/><stop offset="0.15" stop-color="#eb4a4c" stop-opacity="0.76"/><stop offset="0.51" stop-color="#ef5f35" stop-opacity="0.89"/><stop offset="0.8" stop-color="#f16c26" stop-opacity="0.97"/><stop offset="1" stop-color="#f27121"/></linearGradient><radialGradient id="Sfumatura_senza_nome_90" cx="-395.66" cy="55.06" fy="45.33975430110546" r="15.71" xlink:href="#Sfumatura_senza_nome_88"/></defs><path class="cls-1" d="M-356.77,82h0a6.44,6.44,0,0,0,6.25,6.6h25.45c-4.11,15.3-15.8,23.72-31.61,23.72-19.25,0-32.54-14.6-32.54-34.53v-.06a2.39,2.39,0,0,0-2.31-2.44h-9.1a2.35,2.35,0,0,0-2.27,2.41v.09c0,27.51,19.12,47.72,46.22,47.72,25.51,0,44.11-18,46.09-43.09h0a6.83,6.83,0,0,0-6.64-7h-33.29A6.43,6.43,0,0,0-356.77,82Z" transform="translate(403 -7.86)"/><path class="cls-1" d="M-395.66,42.19h0c4,0,7.24,2.74,7.24,6.11V61.82c0,3.37-3.24,6.1-7.24,6.1h0c-4,0-7.24-2.73-7.24-6.1V48.3C-402.9,44.93-399.66,42.19-395.66,42.19Z" transform="translate(403 -7.86)"/><path class="cls-1" d="M-376.88,42.19h0c4,0,7.24,2.74,7.24,6.11V61.82c0,3.37-3.24,6.1-7.24,6.1h0c-4,0-7.24-2.73-7.24-6.1V48.3C-384.12,44.93-380.88,42.19-376.88,42.19Z" transform="translate(403 -7.86)"/><path class="cls-1" d="M-314.9,8.65h0a6.94,6.94,0,0,0-8.47,3.4L-342,54.13a1.87,1.87,0,0,1-3.31,0L-364,12.05a6.94,6.94,0,0,0-8.47-3.4h0c-3.46,1.12-5.24,4.53-4,7.61L-357.38,63a8.35,8.35,0,0,0,7.84,4.89h11.69A8.35,8.35,0,0,0-330,63l19.09-46.77C-309.66,13.18-311.44,9.77-314.9,8.65Z" transform="translate(403 -7.86)"/><path class="cls-2" d="M-210.44,101.91h-4.91a98.83,98.83,0,0,1-.57-11.63c-4.63,8.41-12.1,13-25.52,13-21.08,0-34.51-13.42-34.51-35.07,0-20,13.8-35.26,35.36-35.26,19.47,0,27.7,9.55,30.53,19.57h-6.24c-3.21-7.85-10.21-14.09-24.39-14.09-18.53,0-29,13-29,29.4,0,17.3,10.49,30,28.55,30,15.5,0,25-7.75,25-23.82V71.47H-241V65.89h30.53Z" transform="translate(403 -7.86)"/><path class="cls-2" d="M-196.44,67.49c0-4.25,0-8.6-.09-12.85h5.29c.09,1.23.28,6,.28,11.25,3.31-7.75,10.78-12.58,19.67-12.58V59c-11-.1-19.67,7.65-19.67,21.83v21.09h-5.48Z" transform="translate(403 -7.86)"/><path class="cls-2" d="M-163.07,79.41c.57,11,7.76,18.81,18.82,18.81,8.32,0,13.14-3.69,16.16-9.27h5.58c-2.46,6.34-8.89,14.28-22.41,14.28-15.59,0-23.72-12.1-23.72-24.77,0-14.84,9.83-25.15,23.44-25.15,17.68,0,23.44,13.43,23.44,24.49v1.61Zm35.26-4.73c-.47-6.71-4-16.45-17.48-16.45-10.78,0-16.55,7-17.59,16.45Z" transform="translate(403 -7.86)"/><path class="cls-2" d="M-118.63,54.64h9.92v-16h5.49v16h13.14v4.82h-13.14V88.67c0,6.24,1.7,8.89,7.18,8.89a22.34,22.34,0,0,0,5-.48v4.54a16.29,16.29,0,0,1-6.14.76c-8.79,0-11.54-4-11.54-13.33V59.46h-9.92Z" transform="translate(403 -7.86)"/><path class="cls-2" d="M-43.19,91c0,3.79.28,9.74.47,10.88H-48a58.5,58.5,0,0,1-.57-7.76c-2.46,5.3-7.75,9.08-18.43,9.08-13.62,0-18.34-8.23-18.34-15,0-11.91,11.06-15.32,24.29-15.32h12.48v-3c0-6-2.55-11.72-14.37-11.72-10.49,0-13,4.82-14.18,10.11h-5.48c.66-6.52,4.91-14.94,19.76-14.94,15.31,0,19.66,7.66,19.66,15.41Zm-5.39-13.51H-60.87c-12.67,0-18.91,2.64-18.91,10.39,0,5.58,4.07,10.4,13.24,10.4,14.94,0,18-9.36,18-18Z" transform="translate(403 -7.86)"/><path class="cls-2" d="M21.76,101.91-8.78,34.41h6.34l17.2,38.1c6.34,13.89,8.7,19.75,10,23.25H25c1-2.93,5.3-12.38,8.8-20.23L52.48,34.41h6.34l-31,67.5Z" transform="translate(403 -7.86)"/><path class="cls-2" d="M65.82,40.46v-10H71.3v10Zm0,14.18H71.3v47.27H65.82Z" transform="translate(403 -7.86)"/><path class="cls-2" d="M86.05,101.91V30.44h5.48v71.47Z" transform="translate(403 -7.86)"/><path class="cls-2" d="M106.28,101.91V30.44h5.48v71.47Z" transform="translate(403 -7.86)"/><path class="cls-2" d="M164.42,91c0,3.79.28,9.74.47,10.88H159.6a58.5,58.5,0,0,1-.57-7.76c-2.46,5.3-7.75,9.08-18.43,9.08-13.61,0-18.34-8.23-18.34-15,0-11.91,11.06-15.32,24.29-15.32H159v-3c0-6-2.55-11.72-14.37-11.72-10.49,0-13,4.82-14.18,10.11H125c.66-6.52,4.92-14.94,19.76-14.94,15.31,0,19.66,7.66,19.66,15.41ZM159,77.52H146.74c-12.66,0-18.9,2.64-18.9,10.39,0,5.58,4.06,10.4,13.23,10.4,14.94,0,18-9.36,18-18Z" transform="translate(403 -7.86)"/><path class="cls-2" d="M179.36,66.55c0-4,0-8.32-.09-11.91h5.29c.19,1.79.28,6.24.28,10.21,2-5.3,7.28-11.54,18-11.54S221,59.93,221,73.36v28.55h-5.57V74.49c0-9.07-3.41-16.07-13.43-16.07-11.44,0-17.11,9-17.11,21.27v22.22h-5.48Z" transform="translate(403 -7.86)"/><path class="cls-2" d="M235.52,40.46v-10H241v10Zm0,14.18H241v47.27h-5.48Z" transform="translate(403 -7.86)"/><path class="cls-3" d="M-311.59,88.56c-4.4,21.67-21.92,36.6-45.18,36.6-27.1,0-46.23-20.2-46.23-47.71v-.11a2.35,2.35,0,0,1,2.29-2.4h9.09a2.38,2.38,0,0,1,2.3,2.44v.07c0,19.93,13.29,34.52,32.55,34.52,15.7,0,27.34-8.31,31.52-23.41Z" transform="translate(403 -7.86)"/><path class="cls-4" d="M-376.92,41.77h0c4,0,7.25,2.73,7.25,6.1V61.39c0,3.38-3.25,6.11-7.25,6.11h0c-4,0-7.24-2.73-7.24-6.11V47.87C-384.16,44.5-380.91,41.77-376.92,41.77Z" transform="translate(403 -7.86)"/><path class="cls-5" d="M-314.93,8.22h0a6.93,6.93,0,0,0-8.47,3.4l-18.67,42.09a1.87,1.87,0,0,1-3.32,0l-18.67-42.09a6.94,6.94,0,0,0-8.47-3.4h0c-3.46,1.13-5.24,4.53-4,7.62l19.09,46.76a8.35,8.35,0,0,0,7.84,4.9h11.69A8.34,8.34,0,0,0-330,62.6l19.1-46.76C-309.69,12.75-311.48,9.35-314.93,8.22Z" transform="translate(403 -7.86)"/><path class="cls-6" d="M-310.62,82.27c.11,2.88-.73,6.25-1.72,10.1.07-.27-1.56-1.13-1.76-1.31-3.41-2.36-8-2.75-11.15-2.5,0,0,.09.1.11,0s-.69,0-.68,0l-24.74-.11a6.42,6.42,0,0,1-6.24-6.6,6.42,6.42,0,0,1,6.24-6.6h33.29a6.44,6.44,0,0,1,4.7,2A7.59,7.59,0,0,1-310.62,82.27Z" transform="translate(403 -7.86)"/><path class="cls-7" d="M-395.66,42.19h0c4,0,7.24,2.74,7.24,6.11V61.82c0,3.37-3.24,6.1-7.24,6.1h0c-4,0-7.24-2.73-7.24-6.1V48.3C-402.9,44.93-399.66,42.19-395.66,42.19Z" transform="translate(403 -7.86)"/></svg>